# xmcd
#
# Track frame offsets:
#	150
#	12767
#	29327
#	48822
#	65247
#	79590
#	91997
#	106597
#	121137
#	139760
#	152240
#	165855
#	177860
#	191655
#	201925
#	211982
#	222690
#	233080
#	241400
#	253572
#	264167
#	274482
#
# Disc length: 3776 seconds
#
# Revision: 1
# Processed by: cddbd v1.5.2PL0 Copyright (c) Steve Scherf et al.
# Submitted via: audiograbber 1.83.01
#
DISCID=2e0ebe16
DTITLE=DUETO MISERIA - Corridos
DYEAR=1900
DGENRE=Corridos
TTITLE0=Corrido villista
TTITLE1=Valentín de la sierra
TTITLE2=Valente Quintero
TTITLE3=Los dos hermanos
TTITLE4=Arnulfo González
TTITLE5=Gabino Barrera
TTITLE6=El siete leguas
TTITLE7=Corrido de Chihahua
TTITLE8=Simón Blanco
TTITLE9=Sonora querida
TTITLE10=No me quieras tanto
TTITLE11=Aguanta corazón
TTITLE12=Flor de azalea
TTITLE13=Declárate inocente
TTITLE14=Te regalo mi olvido
TTITLE15=Que nos entierren juntos
TTITLE16=Gorda
TTITLE17=Aunque tú me quieras
TTITLE18=Estrellita marinera
TTITLE19=Hasta la tumba
TTITLE20=Bendito amor
TTITLE21=La ausencia
EXTD=
EXTT0=
EXTT1=
EXTT2=
EXTT3=
EXTT4=
EXTT5=
EXTT6=
EXTT7=
EXTT8=
EXTT9=
EXTT10=
EXTT11=
EXTT12=
EXTT13=
EXTT14=
EXTT15=
EXTT16=
EXTT17=
EXTT18=
EXTT19=
EXTT20=
EXTT21=
PLAYORDER=
